<svg width="43" height="44" viewBox="0 0 43 44" fill="none" xmlns="http://www.w3.org/2000/svg">
<rect x="0.5" y="0.5" width="41.87" height="42.33" rx="20.935" stroke="#FD5625"/>
<path d="M16.0266 9.96826C16.934 10.2756 17.7973 10.7006 18.5943 11.2322C19.72 10.9445 20.8775 10.7999 22.0393 10.802C23.2392 10.802 24.3968 10.9518 25.4818 11.231C26.2786 10.6999 27.1414 10.2754 28.0483 9.96826C28.8905 9.68188 30.0904 9.21788 30.8033 10.0069C31.2867 10.5434 31.4075 11.4424 31.4933 12.1288C31.59 12.8948 31.6129 13.8929 31.3592 14.8838C32.3295 16.1368 32.9143 17.6315 32.9143 19.2603C32.9143 21.7278 31.5779 23.8701 29.5998 25.354C28.6479 26.0591 27.5921 26.6118 26.4703 26.9925C26.7288 27.5845 26.8726 28.2395 26.8726 28.927V32.552C26.8726 32.8725 26.7453 33.1798 26.5187 33.4064C26.2921 33.633 25.9848 33.7603 25.6643 33.7603H18.4143C18.0938 33.7603 17.7865 33.633 17.5599 33.4064C17.3333 33.1798 17.206 32.8725 17.206 32.552V31.3545C16.052 31.4959 15.0841 31.3703 14.2613 31.021C13.4009 30.6561 12.8016 30.0906 12.3509 29.5493C11.9231 29.037 11.4567 27.8818 10.7825 27.657C10.6319 27.6069 10.4926 27.5276 10.3727 27.4236C10.2528 27.3197 10.1545 27.1931 10.0835 27.0512C9.94001 26.7645 9.91632 26.4326 10.0176 26.1285C10.1189 25.8244 10.3368 25.5729 10.6235 25.4295C10.9101 25.2861 11.242 25.2624 11.5461 25.3636C12.3509 25.6319 12.8753 26.2119 13.2342 26.6783C13.8142 27.4275 14.2854 28.4062 15.2038 28.7965C15.582 28.9572 16.1366 29.0623 17.0042 28.9439L17.206 28.9028C17.2083 28.2453 17.3452 27.5951 17.6083 26.9925C16.4865 26.6119 15.4307 26.0591 14.4788 25.354C12.5007 23.8701 11.1643 21.729 11.1643 19.2603C11.1643 17.6339 11.7479 16.1404 12.7158 14.8886C12.462 13.8978 12.4838 12.8973 12.5805 12.13L12.5865 12.084C12.6747 11.3808 12.7774 10.5531 13.2704 10.0069C13.9833 9.21788 15.1844 9.68309 16.0254 9.96946L16.0266 9.96826Z" fill="#FD5625"/>
</svg>
