<svg width="25" height="25" viewBox="0 0 25 25" fill="none" xmlns="http://www.w3.org/2000/svg">
<path d="M23.7431 12.5036C23.4117 12.5036 23.0938 12.6353 22.8595 12.8696C22.6251 13.104 22.4935 13.4218 22.4935 13.7533V21.2511C22.4935 21.5825 22.3618 21.9004 22.1275 22.1347C21.8931 22.3691 21.5753 22.5007 21.2438 22.5007H3.74891C3.41749 22.5007 3.09964 22.3691 2.86529 22.1347C2.63093 21.9004 2.49928 21.5825 2.49928 21.2511V3.75616C2.49928 3.42473 2.63093 3.10688 2.86529 2.87253C3.09964 2.63818 3.41749 2.50652 3.74891 2.50652H11.2467C11.5782 2.50652 11.896 2.37486 12.1304 2.14051C12.3647 1.90616 12.4964 1.58831 12.4964 1.25688C12.4964 0.925459 12.3647 0.607609 12.1304 0.373256C11.896 0.138904 11.5782 0.00724582 11.2467 0.00724582H3.74891C2.75464 0.00724582 1.80109 0.40222 1.09803 1.10528C0.394974 1.80833 0 2.76189 0 3.75616V21.2511C0 22.2454 0.394974 23.1989 1.09803 23.902C1.80109 24.605 2.75464 25 3.74891 25H21.2438C22.2381 25 23.1917 24.605 23.8947 23.902C24.5978 23.1989 24.9928 22.2454 24.9928 21.2511V13.7533C24.9928 13.4218 24.8611 13.104 24.6267 12.8696C24.3924 12.6353 24.0745 12.5036 23.7431 12.5036ZM4.99855 13.4533V18.7518C4.99855 19.0832 5.13021 19.4011 5.36456 19.6354C5.59891 19.8698 5.91676 20.0014 6.24819 20.0014H11.5467C11.7111 20.0024 11.8741 19.9709 12.0264 19.9087C12.1786 19.8465 12.3171 19.7549 12.4339 19.6391L21.0814 10.9791L24.6304 7.50507C24.7475 7.3889 24.8405 7.25069 24.9039 7.09841C24.9673 6.94613 25 6.7828 25 6.61783C25 6.45286 24.9673 6.28953 24.9039 6.13725C24.8405 5.98497 24.7475 5.84676 24.6304 5.73059L19.3319 0.369641C19.2157 0.252514 19.0775 0.159548 18.9252 0.0961058C18.773 0.0326633 18.6096 0 18.4447 0C18.2797 0 18.1164 0.0326633 17.9641 0.0961058C17.8118 0.159548 17.6736 0.252514 17.5574 0.369641L14.0334 3.90612L5.36095 12.5661C5.24513 12.6829 5.1535 12.8214 5.09131 12.9736C5.02912 13.1259 4.9976 13.2889 4.99855 13.4533ZM18.4447 3.01887L21.9811 6.55535L20.2066 8.32983L16.6702 4.79336L18.4447 3.01887ZM7.49783 13.9657L14.9082 6.55535L18.4447 10.0918L11.0343 17.5022H7.49783V13.9657Z" fill="currentColor"/>
</svg>
