<svg width="31" height="31" viewBox="0 0 31 31" fill="none" xmlns="http://www.w3.org/2000/svg">
<path d="M15.5 10.093C14.066 10.093 12.6907 10.6627 11.6767 11.6767C10.6627 12.6907 10.093 14.066 10.093 15.5C10.093 16.934 10.6627 18.3093 11.6767 19.3233C12.6907 20.3373 14.066 20.907 15.5 20.907C16.934 20.907 18.3093 20.3373 19.3233 19.3233C20.3373 18.3093 20.907 16.934 20.907 15.5C20.907 14.066 20.3373 12.6907 19.3233 11.6767C18.3093 10.6627 16.934 10.093 15.5 10.093Z" fill="white"/>
<path fill-rule="evenodd" clip-rule="evenodd" d="M15.5 0C15.7868 0 16.0619 0.113932 16.2647 0.316733C16.4675 0.519534 16.5814 0.794591 16.5814 1.0814V2.92986C19.5427 3.18514 22.3189 4.47754 24.4207 6.5793C26.5225 8.68106 27.8149 11.4573 28.0701 14.4186H29.9186C30.2054 14.4186 30.4805 14.5325 30.6833 14.7353C30.8861 14.9381 31 15.2132 31 15.5C31 15.7868 30.8861 16.0619 30.6833 16.2647C30.4805 16.4675 30.2054 16.5814 29.9186 16.5814H28.0701C27.8149 19.5427 26.5225 22.3189 24.4207 24.4207C22.3189 26.5225 19.5427 27.8149 16.5814 28.0701V29.9186C16.5814 30.2054 16.4675 30.4805 16.2647 30.6833C16.0619 30.8861 15.7868 31 15.5 31C15.2132 31 14.9381 30.8861 14.7353 30.6833C14.5325 30.4805 14.4186 30.2054 14.4186 29.9186V28.0701C11.4573 27.8149 8.68106 26.5225 6.5793 24.4207C4.47754 22.3189 3.18514 19.5427 2.92986 16.5814H1.0814C0.794591 16.5814 0.519534 16.4675 0.316733 16.2647C0.113932 16.0619 0 15.7868 0 15.5C0 15.2132 0.113932 14.9381 0.316733 14.7353C0.519534 14.5325 0.794591 14.4186 1.0814 14.4186H2.92986C3.18514 11.4573 4.47754 8.68106 6.5793 6.5793C8.68106 4.47754 11.4573 3.18514 14.4186 2.92986V1.0814C14.4186 0.794591 14.5325 0.519534 14.7353 0.316733C14.9381 0.113932 15.2132 0 15.5 0ZM5.04651 15.5C5.04651 16.8728 5.3169 18.2321 5.84224 19.5004C6.36757 20.7687 7.13757 21.921 8.10827 22.8917C9.07896 23.8624 10.2313 24.6324 11.4996 25.1578C12.7679 25.6831 14.1272 25.9535 15.5 25.9535C16.8728 25.9535 18.2321 25.6831 19.5004 25.1578C20.7687 24.6324 21.921 23.8624 22.8917 22.8917C23.8624 21.921 24.6324 20.7687 25.1578 19.5004C25.6831 18.2321 25.9535 16.8728 25.9535 15.5C25.9535 12.7276 24.8521 10.0687 22.8917 8.10827C20.9313 6.14786 18.2724 5.04651 15.5 5.04651C12.7276 5.04651 10.0687 6.14786 8.10827 8.10827C6.14786 10.0687 5.04651 12.7276 5.04651 15.5Z" fill="white"/>
</svg>
